<svg width="795" height="240" viewBox="0 0 795 240" fill="none" xmlns="http://www.w3.org/2000/svg">
<path d="M56.3281 21.7969C51.875 22.5781 47.4219 25.1562 44.4531 28.75C41.4062 32.5 40.9375 34.2969 40.7031 41.7187L40.625 48.125H36.0156C30.7812 48.125 29.4531 48.5156 28.4375 50.4687C27.6563 51.9531 27.6563 52.8906 28.4375 54.375C29.4531 56.3281 30.7812 56.7187 36.0937 56.7187H40.7812V69.2187V81.7187H36.0937C30.7812 81.7187 29.4531 82.1094 28.4375 84.0625C27.6563 85.5469 27.6563 86.4844 28.4375 87.9687C29.4531 89.9219 30.7812 90.3125 36.0937 90.3125H40.7812V103.203V116.094L35.4687 116.25L30.1562 116.328L28.9844 117.656C28.2812 118.437 27.8125 119.375 27.8125 120.078C27.8125 120.859 28.2031 121.719 28.9844 122.5L30.1562 123.828L35.4687 123.906L40.7812 124.062V136.953V149.687H36.0937C30.7812 149.687 29.4531 150.078 28.4375 152.031C27.6563 153.516 27.6563 154.453 28.4375 155.937C29.4531 157.891 30.7812 158.281 36.0937 158.281H40.7812V170.781V183.281H36.0937C30.7812 183.281 29.4531 183.672 28.4375 185.625C27.6563 187.109 27.6563 188.047 28.4375 189.531C29.4531 191.484 30.7812 191.875 36.0937 191.875H40.7812V197.5C40.7812 202.031 40.9375 203.672 41.5625 205.703C43.125 210.703 47.7344 215.391 52.9687 217.344L55.3906 218.281L116.953 218.359C185.391 218.437 181.797 218.594 186.328 215.859C190.625 213.281 193.359 209.844 194.766 205.469C195.469 203.203 195.547 201.562 195.547 180.469C195.547 168.047 195.469 157.812 195.391 157.812C195.312 157.812 193.437 159.062 191.328 160.547L187.422 163.281L187.344 182.891C187.266 202.187 187.266 202.578 186.406 204.062C185.312 206.172 183.359 207.969 181.172 208.906C179.453 209.687 178.828 209.687 128.359 209.687H77.0312V120V30.1562H128.125C178.672 30.1562 179.219 30.1562 180.937 30.9375C183.125 31.875 185 33.6719 186.172 35.7812L187.031 37.3437L187.109 80.3906C187.187 104.141 187.266 123.516 187.422 123.516C187.578 123.516 189.375 122.266 191.562 120.703L195.469 117.891V77.4219C195.469 38.6719 195.469 36.7187 194.687 34.4531C193.281 30 189.766 25.7031 185.547 23.5937C181.25 21.4062 183.984 21.4844 118.047 21.5625C84.6875 21.6406 56.875 21.7187 56.3281 21.7969ZM73.125 120V209.844L64.6094 209.766C56.1719 209.687 56.0937 209.687 54.2969 208.594C50.1562 206.172 48.8281 203.281 48.8281 196.25V191.875H51.0156C52.6562 191.875 53.5156 192.109 55 193.047C58.0469 195 61.6406 194.531 63.8281 191.953C67.6562 187.422 64.6875 180.937 58.75 180.781C57.0312 180.781 56.3281 180.937 54.8437 182.031C53.3594 183.047 52.6562 183.281 50.9375 183.281H48.9062V170.781V158.281H51.0937C52.8125 158.281 53.5937 158.516 54.9219 159.375C56.25 160.234 57.0312 160.391 58.9844 160.391C61.0156 160.391 61.5625 160.234 62.8125 159.297C66.25 156.719 66.6406 151.953 63.6719 148.984C61.25 146.562 57.7344 146.406 54.8437 148.437C53.5937 149.375 52.8906 149.609 51.0937 149.609H48.9062V136.719V123.906H51.0937C52.8906 123.906 53.5156 124.062 54.9219 125.078C58.125 127.344 61.4844 127.031 63.9844 124.219C67.2656 120.625 65.5469 115.078 60.7031 113.594C58.75 112.969 56.7969 113.437 54.8437 114.844C53.5156 115.781 52.8906 116.016 51.0937 116.016H48.9062V103.125V90.3125H51.0937C52.8906 90.3125 53.5156 90.4687 55 91.5625C56.5625 92.5781 57.1094 92.8125 58.9062 92.8125C62.8906 92.7344 65.5469 90.0781 65.5469 86.1719C65.5469 83.75 64.6875 82.0312 62.8125 80.625C61.5625 79.6875 61.0156 79.5312 58.9844 79.5312C57.0312 79.5312 56.25 79.6875 54.9219 80.5469C53.5937 81.4844 52.8125 81.7187 51.0937 81.7187H48.9062V69.2187V56.7187H51.0937C52.7344 56.7187 53.5156 56.875 54.4531 57.6562C57.3437 59.8437 61.1719 59.6875 63.5156 57.2656C66.5625 54.2187 66.0156 49.4531 62.5 46.7969C60.8594 45.625 57.6562 45.4687 55.625 46.4844C54.7656 46.9531 53.9062 47.5 53.8281 47.7344C53.6719 47.8906 52.5 48.125 51.25 48.125H48.9062V43.6719C48.9062 37.3437 49.9219 34.6094 53.0469 32.1875C55.4687 30.3906 56.7187 30.1562 65.2344 30.1562H73.125V120Z" fill="white"/>
<path d="M102.969 60.7031L98.5156 65.1563L95.7031 62.3438C92.0313 58.75 90.9375 58.3594 88.9062 60.3906C88.0469 61.1719 87.5 62.1875 87.5 62.7344C87.5 64.1406 89.1406 66.25 93.2813 70.1562C96.6406 73.3594 96.9531 73.5938 98.5156 73.5938C100.078 73.5938 100.313 73.4375 105.781 67.9688C112.109 61.7969 112.891 60.625 112.031 58.5156C111.328 56.9531 110.391 56.3281 108.594 56.3281C107.5 56.3281 106.797 56.875 102.969 60.7031Z" fill="white"/>
<path d="M119.844 60.9375C117.734 61.7969 116.719 64.6875 117.812 66.7969C119.141 69.2969 118.047 69.2969 147.031 69.1406L173.281 69.0625L174.453 67.7344C176.172 65.9375 176.094 63.75 174.219 61.9531L172.891 60.625H146.797C132.344 60.625 120.234 60.7813 119.844 60.9375Z" fill="white"/>
<path d="M102.969 92.3437L98.5156 96.7187L95.5469 93.8281C92.9687 91.25 92.4219 90.9375 91.1719 90.9375C90 90.9375 89.5312 91.1719 88.6719 92.1875C86.5625 94.5313 87.1094 95.7031 92.5 100.937C96.7187 105.078 97.8906 105.781 99.5312 105.156C101.016 104.609 111.328 94.375 112.031 92.8125C113.047 90.4687 111.328 87.9688 108.672 87.9688C107.578 87.9688 106.719 88.5937 102.969 92.3437Z" fill="white"/>
<path d="M119.844 92.9688C117.891 93.8281 116.797 96.4844 117.656 98.5937C117.891 99.2187 118.672 100.078 119.297 100.469C120.547 101.25 121.25 101.25 146.719 101.25H172.812L174.141 99.9219C175.234 98.8281 175.469 98.2813 175.469 96.9531C175.469 95.625 175.234 95.0781 174.141 93.9844L172.812 92.6563H146.719C132.344 92.6562 120.234 92.8125 119.844 92.9688Z" fill="white"/>
<path d="M102.969 123.984L98.5156 128.359L95.625 125.547C93.0469 122.969 92.5781 122.734 91.1719 122.734C89.9219 122.734 89.4531 122.969 88.5937 123.984C86.7969 126.094 87.2656 127.266 92.0312 132.031C96.4844 136.562 97.7344 137.422 99.2969 137.031C100.547 136.719 111.641 125.859 112.266 124.297C112.891 122.891 111.875 120.781 110.469 120.078C108.281 119.063 107.578 119.375 102.969 123.984Z" fill="white"/>
<path d="M162.422 146.406C142.891 160.313 126.484 171.875 126.094 172.188C125.391 172.656 125.469 172.734 126.719 172.5C128.594 172.187 130.156 172.891 130.781 174.297C131.016 175 131.875 175.859 132.812 176.328C136.016 178.047 137.734 180.469 138.203 183.75C138.359 184.766 138.828 185.859 139.219 186.25C140.234 187.188 140.547 188.828 139.922 190.703C139.531 191.719 139.531 192.266 139.844 192.109C140.312 191.875 207.188 144.531 210.469 142.109L212.266 140.781L212.031 138.125C211.641 133.828 211.484 133.359 207.969 128.438L204.609 123.672L201.641 122.422C200 121.719 198.516 121.25 198.281 121.25C198.125 121.172 181.953 132.5 162.422 146.406Z" fill="white"/>
<path d="M119.844 124.219C117.891 125 116.797 127.734 117.656 129.844C117.891 130.469 118.672 131.328 119.297 131.719C120.547 132.5 121.094 132.5 143.516 132.422L166.484 132.344L167.5 131.25C168.359 130.391 168.594 129.844 168.594 128.203C168.594 126.641 168.437 126.094 167.5 125.156L166.484 124.062L143.516 123.984C130.937 123.984 120.234 124.062 119.844 124.219Z" fill="white"/>
<path d="M119.531 182.187C119.219 182.734 117.344 185.859 115.391 189.219C112.109 194.766 111.875 195.469 112.266 196.328C112.5 196.875 112.969 197.344 113.281 197.5C113.594 197.578 117.266 196.953 121.563 196.172C125.781 195.312 129.297 194.609 129.375 194.609C129.688 194.609 128.594 190.937 127.813 189.219C126.797 187.031 123.359 183.125 121.406 181.953C120.078 181.328 120.078 181.328 119.531 182.187Z" fill="white"/>
<path d="M272.04 112.48H262.03V101.84H298.36V112.48H288.35V150H272.04V112.48ZM326.963 151.12C321.923 151.12 317.443 150.047 313.523 147.9C309.65 145.753 306.617 142.79 304.423 139.01C302.277 135.183 301.203 130.843 301.203 125.99C301.203 121.09 302.277 116.727 304.423 112.9C306.617 109.073 309.65 106.11 313.523 104.01C317.443 101.863 321.923 100.79 326.963 100.79C332.003 100.79 336.46 101.863 340.333 104.01C344.253 106.11 347.287 109.073 349.433 112.9C351.627 116.68 352.723 121.043 352.723 125.99C352.723 130.843 351.627 135.183 349.433 139.01C347.287 142.79 344.253 145.753 340.333 147.9C336.413 150.047 331.957 151.12 326.963 151.12ZM326.963 138.38C329.903 138.38 332.307 137.237 334.173 134.95C336.087 132.663 337.043 129.653 337.043 125.92C337.043 123.447 336.6 121.253 335.713 119.34C334.873 117.38 333.683 115.863 332.143 114.79C330.603 113.67 328.853 113.11 326.893 113.11C324.98 113.11 323.253 113.67 321.713 114.79C320.173 115.863 318.983 117.38 318.143 119.34C317.303 121.253 316.883 123.447 316.883 125.92C316.883 129.653 317.817 132.663 319.683 134.95C321.55 137.237 323.977 138.38 326.963 138.38ZM359.433 101.84H380.363C385.403 101.84 389.859 102.843 393.733 104.85C397.653 106.857 400.686 109.657 402.833 113.25C405.026 116.843 406.123 120.95 406.123 125.57C406.123 130.423 405.049 134.693 402.903 138.38C400.803 142.067 397.793 144.937 393.873 146.99C389.999 148.997 385.496 150 380.363 150H359.433V101.84ZM379.663 137.4C383.163 137.4 385.823 136.303 387.643 134.11C389.509 131.87 390.443 128.977 390.443 125.43C390.443 122.07 389.533 119.41 387.713 117.45C385.939 115.443 383.256 114.44 379.663 114.44H374.903V137.4H379.663ZM436.27 151.12C431.23 151.12 426.75 150.047 422.83 147.9C418.957 145.753 415.923 142.79 413.73 139.01C411.583 135.183 410.51 130.843 410.51 125.99C410.51 121.09 411.583 116.727 413.73 112.9C415.923 109.073 418.957 106.11 422.83 104.01C426.75 101.863 431.23 100.79 436.27 100.79C441.31 100.79 445.767 101.863 449.64 104.01C453.56 106.11 456.593 109.073 458.74 112.9C460.933 116.68 462.03 121.043 462.03 125.99C462.03 130.843 460.933 135.183 458.74 139.01C456.593 142.79 453.56 145.753 449.64 147.9C445.72 150.047 441.263 151.12 436.27 151.12ZM436.27 138.38C439.21 138.38 441.613 137.237 443.48 134.95C445.393 132.663 446.35 129.653 446.35 125.92C446.35 123.447 445.907 121.253 445.02 119.34C444.18 117.38 442.99 115.863 441.45 114.79C439.91 113.67 438.16 113.11 436.2 113.11C434.287 113.11 432.56 113.67 431.02 114.79C429.48 115.863 428.29 117.38 427.45 119.34C426.61 121.253 426.19 123.447 426.19 125.92C426.19 129.653 427.123 132.663 428.99 134.95C430.857 137.237 433.283 138.38 436.27 138.38ZM481.796 101.84H496.916V139.36H513.646V150H481.796V101.84ZM519.462 101.84H535.632V150H519.462V101.84ZM559.665 151.12C553.085 151.12 547.532 149.907 543.005 147.48L546.505 136.63C551.312 138.357 555.605 139.22 559.385 139.22C561.438 139.22 562.932 138.987 563.865 138.52C564.845 138.007 565.335 137.26 565.335 136.28C565.335 135.627 565.078 135.067 564.565 134.6C564.052 134.087 563.025 133.527 561.485 132.92C559.945 132.313 557.635 131.567 554.555 130.68C550.775 129.56 547.835 127.74 545.735 125.22C543.635 122.653 542.585 119.713 542.585 116.4C542.585 111.267 544.265 107.393 547.625 104.78C551.032 102.12 555.605 100.79 561.345 100.79C564.332 100.79 567.272 101.117 570.165 101.77C573.058 102.377 575.625 103.287 577.865 104.5L574.085 115.07C571.472 114.183 569.185 113.553 567.225 113.18C565.312 112.76 563.445 112.55 561.625 112.55C558.545 112.55 557.005 113.39 557.005 115.07C557.005 115.91 557.495 116.633 558.475 117.24C559.502 117.8 561.578 118.523 564.705 119.41C569.605 120.717 573.315 122.723 575.835 125.43C578.355 128.09 579.615 131.287 579.615 135.02C579.615 140.2 577.935 144.19 574.575 146.99C571.215 149.743 566.245 151.12 559.665 151.12ZM593.671 112.48H583.661V101.84H619.991V112.48H609.981V150H593.671V112.48ZM648.738 101.84H670.018L683.948 150H667.498L665.678 140.76H653.218L651.188 150H635.438L648.738 101.84ZM663.998 132.15L659.448 111.08L654.688 132.15H663.998ZM688.583 101.84H705.943C713.13 101.84 718.683 103.24 722.603 106.04C726.57 108.84 728.553 112.76 728.553 117.8C728.553 120.973 727.573 123.75 725.613 126.13C723.7 128.51 721.063 130.353 717.703 131.66C714.39 132.92 710.703 133.55 706.643 133.55H703.703V150H688.583V101.84ZM706.713 123.82C709.187 123.82 711.1 123.307 712.453 122.28C713.807 121.253 714.483 119.76 714.483 117.8C714.483 115.84 713.807 114.37 712.453 113.39C711.147 112.41 709.233 111.92 706.713 111.92H703.703V123.68C704.637 123.773 705.64 123.82 706.713 123.82ZM734.042 101.84H751.402C758.589 101.84 764.142 103.24 768.062 106.04C772.029 108.84 774.012 112.76 774.012 117.8C774.012 120.973 773.032 123.75 771.072 126.13C769.159 128.51 766.522 130.353 763.162 131.66C759.849 132.92 756.162 133.55 752.102 133.55H749.162V150H734.042V101.84ZM752.172 123.82C754.646 123.82 756.559 123.307 757.912 122.28C759.266 121.253 759.942 119.76 759.942 117.8C759.942 115.84 759.266 114.37 757.912 113.39C756.606 112.41 754.692 111.92 752.172 111.92H749.162V123.68C750.096 123.773 751.099 123.82 752.172 123.82Z" fill="white"/>
</svg>
